<svg width="20" height="20" viewBox="0 0 20 20" xmlns="http://www.w3.org/2000/svg">
<path d="M5.83366 7.50016C4.45295 7.50016 3.33366 8.61945 3.33366 10.0002C3.33366 11.3809 4.45295 12.5002 5.83366 12.5002H8.33366C8.7939 12.5002 9.16699 12.8733 9.16699 13.3335C9.16699 13.7937 8.7939 14.1668 8.33366 14.1668H5.83366C3.53247 14.1668 1.66699 12.3013 1.66699 10.0002C1.66699 7.69898 3.53247 5.8335 5.83366 5.8335H8.33366C8.7939 5.8335 9.16699 6.20659 9.16699 6.66683C9.16699 7.12707 8.7939 7.50016 8.33366 7.50016H5.83366Z" />
<path d="M5.83366 10.0002C5.83366 9.53993 6.20676 9.16683 6.66699 9.16683H13.3337C13.7939 9.16683 14.167 9.53993 14.167 10.0002C14.167 10.4604 13.7939 10.8335 13.3337 10.8335H6.66699C6.20676 10.8335 5.83366 10.4604 5.83366 10.0002Z" />
<path d="M16.667 10.0002C16.667 8.61945 15.5477 7.50016 14.167 7.50016H11.667C11.2068 7.50016 10.8337 7.12707 10.8337 6.66683C10.8337 6.20659 11.2068 5.8335 11.667 5.8335H14.167C16.4682 5.8335 18.3337 7.69898 18.3337 10.0002C18.3337 12.3013 16.4682 14.1668 14.167 14.1668H11.667C11.2068 14.1668 10.8337 13.7937 10.8337 13.3335C10.8337 12.8733 11.2068 12.5002 11.667 12.5002H14.167C15.5477 12.5002 16.667 11.3809 16.667 10.0002Z" />
</svg>
