<svg data-plans-svg id="SvgjsSvg1008" width="100%" height="100%" xmlns="http://www.w3.org/2000/svg" version="1.1" xmlns:xlink="http://www.w3.org/1999/xlink" xmlns:svgjs="http://svgjs.com/svgjs" viewBox="0 0 1920 1080">
    <defs id="SvgjsDefs1009"></defs>
    <g id="SvgjsG1011">
        <path id="SvgjsPath1013" d="M609 598L609 598L537 539L608 452L701 409L831 523L609 598 z" opacity="0" cursor="pointer" fill="#ffffff"></path>
        <path id="SvgjsPath1015" d="M971 518L971 518L1187 450L1310 517L1283 580L1055 651L1017 593L971 518 z" opacity="0" cursor="pointer" fill="#ffffff"></path>
        <path id="SvgjsPath1017" d="M1078 680L1078 680L1055 651L1283 580L1310 517L1405 564L1439 550L1467 554L1544 642L1527 675L1158 779L1078 680 z" opacity="0" cursor="pointer" fill="#ffffff"></path>
        <path id="SvgjsPath1019" d="M583 807L583 807L642 797L678 823L893 797L902 864L536 911L486 877L476 835L498 824L583 807 z" opacity="0" cursor="pointer" fill="#ffffff"></path>
        <path id="SvgjsPath1021" d="M483 650L483 650L552 620L611 600L709 565L773 601L788 654L788 680L779 811L678 823L642 797L583 807L482 668L483 650 z" opacity="0" cursor="pointer" fill="#ffffff"></path>
        <path id="SvgjsPath1023" d="M949 414L949 414L961 445L1085 410L1109 473L1187 443L1162 377L1089 395L1048 403L1039 388L949 414 z" opacity="0" cursor="pointer" fill="#ffffff"></path>
    </g>
</svg>