<svg width="24" height="24" viewBox="0 0 24 24" xmlns="http://www.w3.org/2000/svg">
<path d="M10.9558 4.06845C12.7018 3.83859 14.4749 4.19127 16 5.07181C17.5251 5.95235 18.7171 7.31152 19.391 8.93854C20.065 10.5656 20.1832 12.3695 19.7274 14.0706C19.2716 15.7716 18.2673 17.2748 16.8701 18.3468C15.5801 19.3367 14.0217 19.908 12.4041 19.9898L14.7072 22.2928L13.2929 23.7071L8.58583 19L13.2929 14.2928L14.7072 15.7071L12.4296 17.9846C13.5974 17.9008 14.7187 17.4767 15.6526 16.7601C16.7004 15.9561 17.4537 14.8287 17.7956 13.5529C18.1374 12.2771 18.0487 10.9242 17.5433 9.70391C17.0378 8.48365 16.1439 7.46426 15 6.80386C13.8562 6.14346 12.5264 5.87894 11.2169 6.05134C9.90735 6.22374 8.69132 6.82342 7.75737 7.75737C6.82342 8.69132 6.22374 9.90735 6.05134 11.2169C5.87894 12.5264 6.14346 13.8562 6.80386 15C7.08 15.4783 6.91613 16.0899 6.43783 16.366C5.95954 16.6422 5.34795 16.4783 5.07181 16C4.19127 14.4749 3.83859 12.7018 4.06845 10.9558C4.29832 9.20979 5.09789 7.58842 6.34316 6.34316C7.58842 5.09789 9.20979 4.29832 10.9558 4.06845Z"/>
</svg>
