<svg width="26" height="28" viewBox="0 0 26 28" xmlns="http://www.w3.org/2000/svg">
<path fill-rule="evenodd" clip-rule="evenodd" d="M17.9176 11.1824C17.4912 11.1823 17.0695 11.0929 16.6797 10.9199C16.29 10.7468 15.9409 10.494 15.6548 10.1778L10.0427 13.3772C10.1354 13.6672 10.1849 13.9692 10.1896 14.2736C10.1855 14.5756 10.136 14.8752 10.0427 15.1624L15.6548 18.3618C16.1447 17.8366 16.8025 17.4989 17.5148 17.4071C18.227 17.3152 18.949 17.4749 19.5561 17.8586C20.1632 18.2423 20.6172 18.826 20.8399 19.5087C21.0625 20.1915 21.0398 20.9306 20.7756 21.5984C20.5115 22.2662 20.0224 22.8209 19.3929 23.1665C18.7635 23.5122 18.033 23.6273 17.3278 23.4919C16.6225 23.3565 15.9866 22.979 15.5299 22.4248C15.0732 21.8705 14.8244 21.1742 14.8264 20.456C14.8286 20.2109 14.8608 19.9669 14.9222 19.7296L9.24442 16.4916C8.80855 16.9147 8.25766 17.2001 7.66057 17.312C7.06347 17.4238 6.44665 17.3573 5.88714 17.1207C5.32763 16.8841 4.85025 16.4878 4.51462 15.9815C4.17899 15.4751 4 14.8811 4 14.2736C4 13.6661 4.17899 13.0721 4.51462 12.5658C4.85025 12.0594 5.32763 11.6632 5.88714 11.4266C6.44665 11.1899 7.06347 11.1234 7.66057 11.2353C8.25766 11.3472 8.80855 11.6325 9.24442 12.0557L14.9222 8.81764C14.8608 8.58031 14.8286 8.33636 14.8264 8.09121C14.8264 7.47983 15.0077 6.88217 15.3473 6.37383C15.687 5.86548 16.1698 5.46927 16.7346 5.23531C17.2995 5.00134 17.921 4.94012 18.5206 5.0594C19.1203 5.17867 19.6711 5.47308 20.1034 5.9054C20.5357 6.33771 20.8301 6.88851 20.9494 7.48815C21.0687 8.08778 21.0075 8.70932 20.7735 9.27417C20.5395 9.83901 20.1433 10.3218 19.635 10.6615C19.1266 11.0011 18.529 11.1824 17.9176 11.1824Z" />
</svg>
